# xmcd
#
# Track frame offsets:
#   150
#   17815
#   35925
#   54942
#   73297
#   90875
#   106955
#   122770
#   139537
#   156290
#   170642
#   188587
#   201615
#   216695
#
# Disc length: 3170 seconds
#
# Revision: 0
# Processed by: cddbd v1.5.1PL0 Copyright (c) Steve Scherf et al.
# Submitted via: uFREEDB ActiveX Control 1.5
#
DISCID=d20c600e
DTITLE=Rick and Renner - Rick and Renner
DYEAR=1900
DGENRE=Country
TTITLE0=Goodbye my Love
TTITLE1=Enrosca, Enrosca
TTITLE2=Mil Vezes Cantarei
TTITLE3=Abre o Coração pra Mim
TTITLE4=De Barretos a Nashville
TTITLE5=Diga Que Ainda Me Ama
TTITLE6=Cortina do Espaço
TTITLE7=Céu de Setembro
TTITLE8=O Que é Que Ela Tem
TTITLE9=Ao Lado de Deus
TTITLE10=Ela É Demais
TTITLE11=Nós Somos Dois Sem Vergonha
TTITLE12=Laços Quebrados
TTITLE13=Ei Flor
EXTD=
EXTT0=
EXTT1=
EXTT2=
EXTT3=
EXTT4=
EXTT5=
EXTT6=
EXTT7=
EXTT8=
EXTT9=
EXTT10=
EXTT11=
EXTT12=
EXTT13=
PLAYORDER=
